<?xml version="1.0" encoding="UTF-8" standalone="no"?>
<svg
   version="1.1"
   style="display: block;"
   viewBox="0 0 2048 1310"
   width="1568"
   height="1003"
   preserveAspectRatio="none"
   id="svg84"
   sodipodi:docname="logo.svg"
   inkscape:version="1.4.3 (0d15f75042, 2025-12-25)"
   xmlns:inkscape="http://www.inkscape.org/namespaces/inkscape"
   xmlns:sodipodi="http://sodipodi.sourceforge.net/DTD/sodipodi-0.dtd"
   xmlns="http://www.w3.org/2000/svg"
   xmlns:svg="http://www.w3.org/2000/svg">
  <sodipodi:namedview
     id="namedview84"
     pagecolor="#ffffff"
     bordercolor="#000000"
     borderopacity="0.25"
     inkscape:showpageshadow="2"
     inkscape:pageopacity="0.0"
     inkscape:pagecheckerboard="0"
     inkscape:deskcolor="#d1d1d1"
     inkscape:zoom="0.47023724"
     inkscape:cx="760.25455"
     inkscape:cy="457.21602"
     inkscape:window-width="1276"
     inkscape:window-height="1413"
     inkscape:window-x="0"
     inkscape:window-y="0"
     inkscape:window-maximized="0"
     inkscape:current-layer="g84" />
  <defs
     id="defs12">
    <linearGradient
       id="Gradient1"
       gradientUnits="userSpaceOnUse"
       x1="1078.91"
       y1="1174.79"
       x2="1075.94"
       y2="1178.23"
       gradientTransform="translate(72.21713,94.434843)">
      <stop
         class="stop0"
         offset="0"
         stop-opacity="0"
         stop-color="rgb(255,255,255)"
         id="stop1" />
      <stop
         class="stop1"
         offset="1"
         stop-opacity="0.0431373"
         stop-color="rgb(244,242,244)"
         id="stop2" />
    </linearGradient>
    <linearGradient
       id="Gradient2"
       gradientUnits="userSpaceOnUse"
       x1="1310.51"
       y1="96.6655"
       x2="1314.39"
       y2="101.866"
       gradientTransform="translate(72.21713,94.434843)">
      <stop
         class="stop0"
         offset="0"
         stop-opacity="0"
         stop-color="rgb(248,255,252)"
         id="stop3" />
      <stop
         class="stop1"
         offset="1"
         stop-opacity="0.0196078"
         stop-color="rgb(227,245,230)"
         id="stop4" />
    </linearGradient>
    <linearGradient
       id="Gradient3"
       gradientUnits="userSpaceOnUse"
       x1="691.528"
       y1="373.829"
       x2="735.503"
       y2="406.374"
       gradientTransform="translate(72.21713,94.434843)">
      <stop
         class="stop0"
         offset="0"
         stop-opacity="1"
         stop-color="rgb(9,111,20)"
         id="stop5" />
      <stop
         class="stop1"
         offset="1"
         stop-opacity="1"
         stop-color="rgb(2,86,5)"
         id="stop6" />
    </linearGradient>
    <linearGradient
       id="Gradient4"
       gradientUnits="userSpaceOnUse"
       x1="1159.01"
       y1="340.414"
       x2="1163.08"
       y2="343.009"
       gradientTransform="translate(72.21713,94.434843)">
      <stop
         class="stop0"
         offset="0"
         stop-opacity="0"
         stop-color="rgb(248,254,249)"
         id="stop7" />
      <stop
         class="stop1"
         offset="1"
         stop-opacity="0.0352941"
         stop-color="rgb(236,249,238)"
         id="stop8" />
    </linearGradient>
    <linearGradient
       id="Gradient5"
       gradientUnits="userSpaceOnUse"
       x1="1187.71"
       y1="363.636"
       x2="1109.16"
       y2="351.287"
       gradientTransform="translate(72.21713,94.434843)">
      <stop
         class="stop0"
         offset="0"
         stop-opacity="1"
         stop-color="rgb(2,79,6)"
         id="stop9" />
      <stop
         class="stop1"
         offset="1"
         stop-opacity="1"
         stop-color="rgb(6,108,13)"
         id="stop10" />
    </linearGradient>
    <linearGradient
       id="Gradient6"
       gradientUnits="userSpaceOnUse"
       x1="463.175"
       y1="205.861"
       x2="475.756"
       y2="199.653"
       gradientTransform="translate(72.21713,94.434843)">
      <stop
         class="stop0"
         offset="0"
         stop-opacity="1"
         stop-color="rgb(11,118,21)"
         id="stop11" />
      <stop
         class="stop1"
         offset="1"
         stop-opacity="1"
         stop-color="rgb(3,90,4)"
         id="stop12" />
    </linearGradient>
  </defs>
  <g
     id="g84"
     transform="translate(-1.3698761,0.39138097)">
    <path
       fill="#000000"
       d="m 975.26766,1006.7976 c -32.366,-6.143 -105.11153,-13.18976 -136.74153,-21.28576 -62.641,-16.034 -135.27,-42.225 -180.161,-89.983 -11.416,5.347 -54.747,35.509 -67.69,44.174 -44.413,29.661 -89.23,58.713 -134.438,87.14696 -14.455,9.194 -28.703,18.583 -42.862,28.15 -8.158,5.512 -25.458,15.942 -33.32,4.793 -7.64,-10.834 12.023,-19.091 18.354,-23.232 42.366,-27.71 85.295,-54.43796 128.148,-81.37596 39.231,-24.975 76.644,-52.71 116.528,-76.74 -19.488,-23.557 -36.123,-49.335 -49.559,-76.798 -15.046,0.482 -30.101,2.376 -45.171,2.749 -67.137,1.664 -133.67,10.882 -200.511,15.954 -36.492,2.887 -73.034,5.098 -109.608,6.631 -13.303,0.659 -27.051,1.291 -40.351,1.282 -9.922,-0.006 -27.5791,10.359 -31.6624,-0.051 2.6174,-7.807 33.2704,-18.071 41.3964,-19.303 9.927,-1.506 24.076,-1.56 34.338,-2.091 21.692,-1.146 43.373,-2.468 65.043,-3.964 75.399,-5.557 150.652,-16.379 226.307,-19.232 16.196,-0.611 34.036,-1.212 50.03,-3.099 -10.645,-27.528 -28.821,-64.099 -32.755,-93.275 -67.288,-19.46 -136.885,-33.543 -205.529,-47.163 -51.196,-10.157 -101.463,-24.125 -153.024,-32.287 -6.555,-1.038 -10.68,-7.957 -10.042,-14.384 3.609,-6.202 10.935,-5.943 17.386,-4.823 38.689,6.716 76.79,16.703 115.164,25.086 62.199,13.587 125.197,22.542 186.476,40.098 14.302,4.086 30.196,8.609 44.679,11.577 -0.91,-7.469 -2.656,-17.051 -3.874,-24.582 -6.228,-38.519 -2.82,-126.116 20.873,-157.391 -17.025,-34.812 -38.391,-64.224 -54.556,-100.067 -15.215,-33.736 -24.387,-74.438 -40.949,-106.609 -18.774,-35.329 -47.558,-64.359 -63.907,-101.0585 -10.891,-27.4581 34.298,-19.174 47.559,-19.3468 73.083,-0.9525 138.904,29.1715 203.074,62.1933 29.724,15.145 58.386,32.288 85.79,51.312 17.61,11.973 36.995,28.163 56.086,36.66 29.634,13.188 5.158,32.575 -13.685,23.475 -4.743,-2.291 -10.507,-7.212 -14.79,-10.548 -23.522,5.535 -76.66,26.353 -94.622,40.737 l -5.647,5.116 c -33.76,28.685 -58.494,76.133 -62.723,120.512 -4.385,23.376 12.332,38.209 17.612,58.842 0.736,2.878 -4.969,11.847 -4.47,12.984 7.628,17.351 -9.407,19.33 -18.367,3.201 -9.118,-16.412 -15.686,-36.066 -24.767,-52.887 -18.286,53.213 -15.329,109.458 -4.464,164.025 54.338,15.442 113.127,22.799 166.707,42.018 8.772,3.146 18.028,5.437 26.472,9.307 17.818,8.052 9.919,26.4 -6.677,20.2 -17.712,-6.616 -32.275,-12.99 -50.753,-17.963 -43.562,-11.726 -87.487,-21.572 -131.204,-32.708 7.68,26.709 21.372,61.526 33.81,86.792 74.892,-2.348 148.707,-15.11 223.449,-20.137 21.367,-1.438 39.819,10.295 26.679,34.482 -0.658,1.212 -3.404,1.491 -4.747,1.125 -17.52,-11.095 -5.879,-15.771 -30.347,-14.051 -30.441,2.14 -60.489,6.839 -90.878,10.135 -38.007,3.798 -76.073,6.968 -114.185,9.507 10.668,21.102 29.51,47.52 44.162,66.314 11.676,-7.623 72.122,-46.045 81.375,-43.999 4.652,1.029 10.008,5.976 12.1,10.229 1.102,2.24 0.79,4.879 -0.152,7.116 -0.937,2.222 -2.268,3.616 -4.353,4.791 -9.527,5.369 -20.778,8.469 -30.709,13.216 -15.07,7.203 -29.534,16.624 -43.828,25.27 47.152,46.019 121.151,72.535 184.753,85.451 22.308,4.53 50.38,4.879 73.702,9.018 59.44,10.549 118.55597,11.832 178.54597,6.264 59.36,-5.51 114.89,-25.83 167.77,-52.554 50.2,-24.213 69.97,-33.964 99.98,-81.94 -12.56,-0.788 -25.05,-1.28 -37.64,-0.761 -13.18,0.544 -28.01,2.847 -41.02,1.09 -3.69,-0.498 -7.08,-1.782 -9.58,-4.678 -2.07,-2.403 -2.89,-5.964 -2.47,-9.077 0.31,-2.264 1.4,-4.155 3.29,-5.46 10.86,-7.512 83.82,-2.783 100.43,-1.417 9.36,-18.33 18.31,-33.634 24.6,-53.426 -24.61,1.643 -52.17,6.441 -76.83,9.484 -13.48,1.664 -28.22,5.044 -41.75,5.55 -5.66,-2.603 -11.34,-5.598 -13.76,-11.766 -2.04,-5.185 2.83,-8.99 7.53,-9.658 43.94,-6.245 88.75,-9.634 132.54,-16.595 9.04,-27.006 17.18,-57.638 20.84,-86.045 -26.07,10.574 -138.07,65.881 -157.04,57.531 -1.81,-0.8 -2.94,-2.256 -4.09,-3.804 -2.02,-11.576 12.55,-15.229 21.5,-17.998 35.02,-10.848 68.46,-26.229 101.89,-41.152 13.22,-5.876 26.6,-13.202 40.15,-18.231 3.35,-57.199 -2.3,-128.365 -39.85,-174.462 -33.94,-11.769 -5.3,-34.69 7.66,-23.665 48.8,41.53 56.18,128.608 55.28,186.063 107.94,-51.27 214.87,-104.125 329.79,-138.598 47.86,-15.145 96.32,-28.715 145.19,-40.193 20.72,-4.864 44.79,-12.926 65.62,-12.769 6.05,0.045 17.09,16.537 2.31,20.856 -9.71,2.839 -19.56,4.639 -29.39,6.859 l -53.18,12.463 c -43.54,10.612 -86.72,22.662 -129.46,36.131 -118.47,36.262 -221.64,86.89 -332.53,139.887 -2.54,31.189 -10.44,62.424 -18.93,92.457 17.24,-2.281 34.43,-4.983 51.54,-8.103 27.93,-5.203 110.21,-25.548 132.57,-8.228 5.08,3.932 8.55,9.556 9.3,15.973 0.5,4.256 -0.15,8.127 -3.03,11.469 -1.75,2.027 -3.54,2.629 -6.09,3.141 -5.12,-1.393 -4.35,-5.333 -6.96,-9.456 -3.95,-6.232 -12.46,-7.444 -19.3,-7.124 -37.55,1.754 -74.26,10.837 -111.2,17.127 -18.13,3.053 -36.48,5.487 -54.68,8.369 -5.75,20.576 -16.36,40.803 -25.87,59.8 47.72,6.523 85.18,11.789 132.14,23.69 28.03,7.154 55.84,15.135 83.4,23.934 34.85,11.503 80.71,27.647 114.56,39.965 37.74,13.741 227.19,58.356 231.94,93.13196 -2.93,8.458 -11.68,6.633 -17.89,3.275 -67.13,-36.26396 -141.53,-50.62896 -213.6,-74.03996 -39.04,-12.682 -78.03,-28.647 -117.16,-41.655 -53.08,-17.801 -107.51,-31.249 -162.77,-40.212 -17.58,-2.863 -44.57,-7.342 -62.34,-8.289 -20.49,33.883 -35.49,57.385 -72.17,76.843 -46.99,24.929 -97.45,45.886 -148.21,61.839 -22.68,6.703 -66.01,12.34496 -88.45,14.98096 3.17,4.812 0.2744,4.4481 2.9044,9.5401 4.2157,14.502 -1.0344,44.3179 2.4256,58.1119 -0.12,5.028 -0.1,10.057 0.06,15.084 -0.83,8.909 0.06,28.739 0.19,38.849 0.12,10.08 -0.14,29.38 0.85,38.94 1.7155,11.7934 -1.28,45.77 -0.63,60.6 0.6617,41.953 2.6313,39.1083 -23.95,14.19 -8.16,-6.95 -18.691,-12.09 -28.104,-17.22 -52.0969,35.8707 -42.9924,30.9432 -54.24952,47.3247 -2.11199,3.0734 -5.93124,2.6421 -11.76424,-4.1879 -11.726,-11.76 -9.41045,-21.8031 -9.64845,-33.5331 M 491.04413,251.73884 c 5.825,7.275 14.583,17.486 15.197,27.127 l -0.867,1.143 c -5.624,-1.954 -10.897,-12.729 -15.301,-17.835 -1.827,-1.656 -3.348,-3.686 -5.365,-3.823 1.408,5.503 5.661,13.996 8.182,19.415 12.923,27.627 20.926,57.149 33.722,84.829 10.26,22.192 23.121,42.45 35.578,63.407 6.463,10.871 11.361,26.346 18.36,36.343 3.559,-4.353 9.503,-21.318 12.851,-28.303 -3.96,-6.056 -6.064,-10.68 -9.307,-16.444 -10.198,-18.122 -14.28,-20.548 -15.518,-40.729 4.354,5.798 7.751,10.479 14.246,13.952 -3.809,-8.322 -8.085,-16.422 -12.806,-24.262 -11.139,-23.717 -25.474,-49.09 -38.159,-72.194 -6.984,-12.93 -42.7,-79.417 -38.657,-92.058 0.757,-2.365 1.956,-2.793 4.003,-3.664 2.545,0.156 6.149,0.569 7.627,2.938 5.553,8.901 5.597,27.923 9.815,36.75 12.031,25.177 68.338,139.288 83.219,154.138 l 1.565,2.243 c -2.179,5.593 0.925,12.002 2.999,17.464 5.958,-8.613 10.001,-15.046 15.2,-24.139 -4.712,-6.477 -8.718,-11.651 -12.366,-18.865 -20.705,-40.939 -39.082,-83.641 -54.937,-126.618 -3.332,-9.512 -14.279,-41.739 -12.396,-49.709 -34.338,-12.8701 -70.637,-13.6615 -106.697,-13.2402 4.109,6.704 9.035,16.8692 16.79,17.9132 8.101,1.092 10.998,4.849 15.198,12.025 8.789,15.013 17.43,28.128 27.824,42.196 z m 517.04997,926.83596 c 6.862,11.1 13.603,24.37 20.737,34.62 14.927,-13.64 18.613,-15.91 38.5,-8.05 3.591,2.12 5.876,3.3 9.666,5.03 1.97,1.55 3.14,2.9 5.58,3.06 0.68,-5.97 -0.14,-29.15 -0.61,-35.24 l 0.07,-0.83 c 0.48,-4 0.13,-8.42 -0.04,-12.48 0.78,-11.87 -0.36,-27.28 -1.06,-39.37 0.22,-3.95 -0.3,-11.65 -0.47,-15.85 1.2,-8.93 0.28,-22.094 -0.28,-31.049 l 0.02,-7.257 c -0.52,-7.986 -0.06,-20.187 0.01,-28.476 0.07,-3.318 -0.08,-7.13 -0.15,-10.491 1.22,-9.404 2.88,-16.483 4.43,-25.688 l -0.89,-0.711 c -8.78,0.233 -35.731,0.232 -43.083,1.425 l -5.47,-0.559 c -7.262,-0.221 -13.94,-0.142 -21.189,-0.012 -2.55,5.251 -9.999,14.165 -14.64297,17.697 0.21,9.099 0.584,16.03 1.51097,25.077 -0.83497,4.218 -0.366,8.541 -0.139,12.855 l 0.689,7.995 c -1.027,6.366 -3.11897,17.773 3.09,21.844 -4.88397,4.96 -3.552,8.52 -3.169,15.33 l 0.186,21.86 c 4.056,6.07 11.215,19.38 17.254,21.98 1.312,1.1 2.75,2.45 4.249,3.2 -3.289,7.73 -10.44,15.92 -14.799,24.09 z m 14.07,34.5 c -3.109,-6.58 -13.923,-29.41 -20.716,-30.89 l -0.728,9.97 c 7.998,5.61 10.44,13.63 21.444,20.92 z M 554.49913,357.33684 c -4.147,-5.294 -8.349,-10.545 -12.605,-15.751 -1.33,-3.202 -3.964,-9.884 -2.926,-13.139 2.845,0.102 3.429,1.548 6.005,3.908 4.178,11.343 5.872,9.671 9.526,24.982 z m 461.62597,797.13796 c -1.153,-1.51 -2.339,-2.99 -3.557,-4.45 -2.932,-3.51 -5.756,-6.49 -10.511,-6.91 -1.636,8.06 -1.076,17.91 -0.5,26.14 1.085,0.78 2.186,1.51 3.296,2.25 4.512,-3.06 8.574,-11.95 11.272,-17.03 z m -11.274,-141.265 c 4.295,4.112 9.156,10.897 12.883,15.755 l -3.057,3.538 c -4.703,-5.995 -7.051,-12.331 -9.826,-19.293 z M 595.27113,216.48084 c -7.831,-5.447 -35.642,-16.23 -44.885,-18.912 1.774,8.645 3.396,16.783 4.789,25.496 11.782,38.217 25.182,72.509 42.446,108.552 8.054,16.815 15.047,33.348 25.599,48.779 10.554,-12.216 18.987,-21.76 30.97,-32.565 -23.133,-34.61 -38.574,-76.913 -58.386,-111.461 -3.17,-6.459 -5.986,-14.167 -0.533,-19.889 z M 1003.2481,1241.7548 c 8.002,-8.1 14.452,-17.25 21.896,-24.82 -10.752,-0.72 -16.336,-9.39 -23.997,-16.97 0.217,12.19 0.269,30.11 2.101,41.79 z M 745.56913,303.77084 c -4.553,-4.084 -17.203,-12.505 -22.619,-16.236 -33.996,-23.417 -81.959,-52.937 -120.25,-67.478 1.462,3.15 3.447,7.153 4.656,10.299 1.806,14.632 34.005,72.907 41.831,89.451 2.604,5.505 10.126,17.213 11.968,22.51 24.481,-16.942 56.552,-28.701 84.414,-38.546 z"
       id="path12"
       sodipodi:nodetypes="cccccssccccccccccccccccccccccccccccccccccccccccccccccccccsccccscsccsscccccccccccccsccccccccccccccccccccccccccccccccccsccccccccccccccscccccccccccccccccccccccccccccccccccccccccccccccccccccccccccccccccccccccccccccccccccsccccccccccccscc" />
  </g>
  <path
     fill="#e13535"
     d="m 1104.7971,1165.3748 c -1032.57997,-1070.939957 -1032.57997,-1070.939957 0,0 z"
     id="path13"
     sodipodi:nodetypes="cc" />
  <path
     fill="#e31717"
     d="m 1035.0541,1006.6588 5.47,0.559 c -0.522,4.047 -1.927,5.635 -4.154,8.963 4.166,6.313 7.797,11.753 12.385,17.789 4.234,-4.683 18.525,-21.988 22.211,-24.08 l 2.741,-0.136 -2.1,-0.189 2.4,1.816 c -0.84,4.99 -1.76,5.848 -5.328,9.505 3.648,3.535 8.038,7.586 11.388,11.306 0.07,3.361 0.22,7.173 0.15,10.491 -6.48,-6.257 -10.195,-9.281 -17.421,-14.666 -3.563,4.02 -7.129,7.957 -10.432,12.199 4.694,13.743 10.23,31.21 16.43,44.083 4.133,-5.625 6.033,-8.501 11.413,-13.14 l -0.02,7.257 -8.705,11.297 c 2.845,6.492 5.735,13.492 8.985,19.752 0.17,4.2 0.69,11.9 0.47,15.85 -4.57,5.86 -8.4,10.89 -12.599,17.05 2.312,4.76 9.059,20.85 13.659,22.32 0.17,4.06 0.52,8.48 0.04,12.48 l -0.07,0.83 c -6.3,5.56 -7.19,12.59 -12.609,18.21 2.919,4.92 5.189,8.79 7.639,13.97 -3.79,-1.73 -6.075,-2.91 -9.666,-5.03 0.373,-3.8 -15.64,-27.18 -18.401,-31.74 -4.696,7.85 -8.854,15.98 -15.91,21.83 l -1.095,-0.37 c 0.643,-7.52 9.366,-20.41 13.656,-27.44 -3.726,-7.31 -9.86,-17.16 -14.109,-24.46 -3.009,3.47 -5.889,7.74 -8.579,11.52 -1.499,-0.75 -2.937,-2.1 -4.249,-3.2 2.728,-4.23 6.777,-9.19 9.912,-13.25 -6.859,-13.29 -13.962,-26.45 -21.305,-39.48 l -6.047,8.89 c -0.383,-6.81 -1.71497,-10.37 3.169,-15.33 -6.20897,-4.071 -4.117,-15.478 -3.09,-21.844 1.518,7.41 1.691,12.069 6.567,17.952 3.282,-1.349 11.063,-14.852 13.33,-18.496 -3.721,-7.195 -6.678,-13.218 -11.326,-19.88 -2.927,3.185 -6.646,8.758 -9.26,12.429 -0.227,-4.314 -0.69597,-8.637 0.139,-12.855 5.661,-1.164 10.98,-12.007 13.944,-16.918 l 3.057,-3.538 c 5.732,-7.596 11.277,-14.956 17.32,-22.306 z m 31.858,186.756 c 3.227,-6.47 8.005,-13.53 11.945,-19.71 l -14.636,-24.98 -11.746,18.9 c 4.966,8.31 10.462,17.02 14.437,25.79 z m -37.854,-123.72 c 6.808,12.624 13.517,25.3 20.126,38.03 4.995,-4.29 10.655,-12.53 15.273,-17.715 -2.612,-6.553 -14.956,-40.169 -17.669,-43.76 -6.923,8.069 -11.869,14.491 -17.73,23.445 z m -17.577,23.441 c 6.123,11.459 14.398,28.589 20.776,39.269 4.544,-7.08 8.209,-12.5 13.283,-19.2 -2.646,-5.25 -17.83,-35.028 -20.718,-37.997 -4.408,6.004 -8.855,11.98 -13.341,17.928 z m 55.327,1.709 c -4.441,6.27 -9.458,12.71 -13.729,18.87 4.51,8.19 8.127,14.95 12,23.44 3.399,-5.22 9.498,-15.09 13.198,-19.62 -2.01,-5.05 -8.416,-18.24 -11.469,-22.69 z m -5.551,48.15 c -1.986,-3.76 -11.222,-21.69 -13.225,-23.71 l -13.373,18.05 c 4.749,8.11 10.275,17.07 14.737,25.23 3.895,-6.67 7.606,-13.11 11.861,-19.57 z m -30.242,-121.919 c -4.934,6.502 -13.144,16.726 -17.198,23.365 l 9.979,19.139 c 0.434,0.076 1.184,0.307 1.451,0.155 6.062,-8.36 11.867,-16.33 18.283,-24.418 -3.49,-5.993 -7.504,-13.662 -12.515,-18.241 z"
     id="path14" />
  <path
     fill="#ec5855"
     d="m 1078.8571,1173.7048 c 1.45,2.78 0.57,1.96 3.18,3.46 l -0.07,0.83 c -6.3,5.56 -7.19,12.59 -12.609,18.21 l -2.446,-2.79 c 3.227,-6.47 8.005,-13.53 11.945,-19.71 z"
     id="path15" />
  <path
     fill="url(#Gradient6)"
     d="m 531.85713,294.36484 c -6.984,-12.93 -42.7,-79.417 -38.657,-92.058 0.757,-2.365 1.956,-2.793 4.003,-3.664 2.545,0.156 6.149,0.569 7.627,2.938 5.553,8.901 5.597,27.923 9.815,36.75 12.031,25.177 68.338,139.288 83.219,154.138 -7.8,2.529 -8.269,3.052 -15.042,-1.648 -3.809,-8.322 -8.085,-16.422 -12.806,-24.262 -11.139,-23.717 -25.474,-49.09 -38.159,-72.194 z"
     id="path16"
     style="fill:url(#Gradient6)" />
  <path
     fill="#047110"
     d="m 555.17513,223.06484 c 11.782,38.217 25.182,72.509 42.446,108.552 8.054,16.815 15.047,33.348 25.599,48.779 l -5.592,7.641 c -4.712,-6.477 -8.718,-11.651 -12.366,-18.865 -20.705,-40.939 -39.082,-83.641 -54.937,-126.618 2.289,-1.192 3.298,-1.851 5.418,-3.332 2.264,-6.296 -2.221,-8.174 -0.568,-16.157 z"
     id="path17" />
  <path
     fill="#047110"
     d="m 595.27113,216.48084 7.429,3.576 c 1.462,3.15 3.447,7.153 4.656,10.299 1.806,14.632 34.005,72.907 41.831,89.451 2.604,5.505 10.126,17.213 11.968,22.51 l -6.965,5.514 c -23.133,-34.61 -38.574,-76.913 -58.386,-111.461 -3.17,-6.459 -5.986,-14.167 -0.533,-19.889 z"
     id="path18" />
  <path
     fill="#015405"
     d="m 595.27113,216.48084 7.429,3.576 c 1.462,3.15 3.447,7.153 4.656,10.299 -3.483,4.498 -5.755,4.487 -11.552,6.014 -3.17,-6.459 -5.986,-14.167 -0.533,-19.889 z"
     id="path19" />
  <path
     fill="#e13535"
     d="m 1001.3901,1129.3048 c 4.056,6.07 11.215,19.38 17.254,21.98 1.312,1.1 2.75,2.45 4.249,3.2 -3.289,7.73 -10.44,15.92 -14.799,24.09 6.862,11.1 13.603,24.37 20.737,34.62 l -3.687,3.74 c -10.752,-0.72 -16.336,-9.39 -23.997,-16.97 l -0.427,-7.81 c 7.998,5.61 10.44,13.63 21.444,20.92 -3.109,-6.58 -13.923,-29.41 -20.716,-30.89 l 0.109,-12.93 c 1.085,0.78 2.186,1.51 3.296,2.25 4.512,-3.06 8.574,-11.95 11.272,-17.03 -1.153,-1.51 -2.339,-2.99 -3.557,-4.45 -2.932,-3.51 -5.756,-6.49 -10.511,-6.91 -0.31,-4.6 -0.532,-9.2 -0.667,-13.81 z"
     id="path20" />
  <path
     fill="#03630a"
     d="m 537.92913,192.84484 c 2.023,0.7265 11.231,3.881 12.457,4.724 1.774,8.645 3.396,16.783 4.789,25.496 -1.653,7.983 2.832,9.861 0.568,16.157 -2.12,1.481 -3.129,2.14 -5.418,3.332 -3.332,-9.512 -14.279,-41.739 -12.396,-49.709 z"
     id="path21" />
  <path
     fill="#4a494a"
     d="m 491.04413,251.73884 c 5.825,7.275 14.583,17.486 15.197,27.127 l -0.867,1.143 c -5.624,-1.954 -10.897,-12.729 -15.301,-17.835 l 1.691,-1.3 c 1.238,-2.882 0.038,-5.871 -0.72,-9.135 z"
     id="path22" />
  <path
     fill="#4a494a"
     d="m 541.89413,341.58584 c -1.33,-3.202 -3.964,-9.884 -2.926,-13.139 2.845,0.102 3.429,1.548 6.005,3.908 4.178,11.343 5.872,9.671 9.526,24.982 -4.147,-5.294 -8.349,-10.545 -12.605,-15.751 z"
     id="path23" />
  <path
     fill="#e31717"
     d="m 999.22213,1024.3438 -0.003,-0.956 c 0.111,-10.176 2.59297,-17.184 14.64597,-16.741 -2.55,5.251 -9.999,14.165 -14.64297,17.697 z"
     id="path24" />
  <path
     fill="#ec5855"
     d="m 1004.8511,1013.2098 c 4.295,4.112 9.156,10.897 12.883,15.755 l -3.057,3.538 c -4.703,-5.995 -7.051,-12.331 -9.826,-19.293 z"
     id="path25" />
  <path
     fill="#000000"
     d="m 1060.3891,581.02084 c -8.341,7.304 -18.561,21.213 -28.742,24.426 -3.566,1.126 -7.887,-2.439 -11.143,-4.584 -3.491,0.01 -7.461,0.03 -10.209,-2.489 -2.332,-2.139 -2.854,-5.082 -2.806,-8.109 0.431,-27.375 51.2,-90.55 70.808,-109.702 12.21,-11.943 25.38,-22.861 39.38,-32.644 19.58,-13.767 79.26,-48.832 101.43,-48.304 5.17,0.123 11.21,1.193 14.75,5.32 1.83,2.135 3.02,5.499 2.53,8.317 -1.42,8.078 -19.24,7.76 -25.64,9.299 -4.88,1.153 -9.51,3.189 -13.66,6.007 l 0.56,6.442 c 16.02,-4.62 31.61,-10.829 47.71,-13.744 3.75,-4.201 10.73,-14.042 17.07,-7.206 2.69,2.905 4.86,7.963 4.83,11.994 -2.41,3.944 -3.62,3.543 -8.49,3.726 -4.69,3.723 -12.84,19.782 -16.2,25.9 7.73,-3.011 16.06,-7.147 24.79,-5.742 4.49,-0.376 12.15,10.199 10.16,14.256 -4.64,9.469 -22.98,10.371 -31.78,13.884 -4.42,1.764 -7.71,3.767 -11.22,5.801 -2.14,4.465 -3.27,7.605 -7.95,9.587 -2.68,-0.258 -2.82,-0.289 -5.31,-1.403 l -0.59,-0.265 c -15.48,4.199 -70.54,44.408 -81.83,57.007 -1.43,6.609 -1.87,6.829 -8.24,9.738 -5.57,2.545 -9.46,7.684 -13.45,12.228 -9.43,10.754 -19.1,21.61 -26.54,33.877 -2.78,4.548 -10.41,22.161 -13.68,24.321 -24.933,16.474 -17.006,-42.304 -16.538,-47.938 z m -3.983,-42.023 12.015,5.623 c 0.911,-7.144 0.587,-11.586 5.756,-16.646 l 1.92,-0.383 c 5.24,4.283 2.31,13.283 1.15,19.111 11.84,2.758 18.11,3.299 29.9,4.989 4.27,-4.698 8.64,-9.295 13.12,-13.787 -3.13,-0.885 -3.57,-0.899 -6.21,-2.687 -4.64,-9.18 5.12,-24.438 4.84,-31.166 l -2.71,-0.795 c -11.68,4.19 -8.5,30.249 -14.12,38.734 -3.17,1.963 -1.72,1.651 -5.43,1.164 -9.85,-7.858 2.01,-33.352 6.12,-43.12 -4.72,-1.121 -5.92,-1.836 -10.19,-4.028 -11.13,10.146 -29.103,29.852 -36.161,42.991 z m 6.33,15.968 c -5.198,0.281 -9.748,-1.565 -14.437,-3.479 -5.701,8.41 -13.291,19.894 -17.486,29.197 9.566,-7.479 22.798,-20.074 31.923,-25.718 z m 179.831,-99.296 c 3.36,-6.118 11.51,-22.177 16.2,-25.9 4.87,-0.183 6.08,0.218 8.49,-3.726 0.03,-4.031 -2.14,-9.089 -4.83,-11.994 -6.34,-6.836 -13.32,3.005 -17.07,7.206 -16.1,2.915 -31.69,9.124 -47.71,13.744 l -0.56,-6.442 -13.42,6.015 c -6.95,2.522 -23.87,11.069 -29.83,15.604 l 2.82,1.406 c 7.45,0.518 16.42,1.617 23.67,1.719 -1.13,3.712 -2.22,6.603 -2.44,10.489 -9.79,-0.3 -17.05,-0.626 -26.74,-1.82 -2.54,-0.424 -4.57,-0.855 -7.18,-0.837 -4.19,3.637 -9.92,28.036 -11.72,34.861 8.07,1.268 31.06,1.998 35.45,3.493 3.3,-1.589 5.76,-3.462 8.75,-5.547 2.66,-1.985 7.98,-5.049 10.99,-6.901 6.92,-4.237 18.89,-11.149 24.89,-15.894 6.38,-3.27 25.42,-11.989 30.24,-15.476 z m -138.61,29.698 3.91,1.307 c 3.31,-1.761 2.85,-2.311 4.88,-5.938 2.81,-1.655 1.33,-1.375 4.61,-0.776 2.92,3.077 3.12,7.348 4.78,11.816 2.3,-2.556 8.01,-23.047 9.34,-27.633 -6.77,3.471 -21.65,15.692 -27.52,21.224 z m -4.69,74.209 c -5.64,1.003 -11.48,-0.154 -16.89,-1.719 3.16,9.803 0.96,13.408 -1.5,23.399 7.77,-7.06 11.94,-13.547 18.39,-21.68 z m 23.69,-24.395 c 11.35,-10.351 18.93,-17.161 31.25,-26.648 -9.55,-0.185 -16.39,-0.687 -25.91,-2.072 -3.33,11.386 -3.77,16.868 -5.34,28.72 z"
     id="path26" />
  <path
     fill="#047110"
     d="m 1156.6571,451.58284 c 7.45,0.518 16.42,1.617 23.67,1.719 -1.13,3.712 -2.22,6.603 -2.44,10.489 -9.79,-0.3 -17.05,-0.626 -26.74,-1.82 -1.49,-1.071 -2.96,-2.175 -4.4,-3.312 1.72,-3.874 5.43,-4.725 9.91,-7.076 z"
     id="path27" />
  <path
     fill="url(#Gradient5)"
     d="m 1245.3571,421.25584 c 3.75,-4.201 10.73,-14.042 17.07,-7.206 2.69,2.905 4.86,7.963 4.83,11.994 -2.41,3.944 -3.62,3.543 -8.49,3.726 -4.69,3.723 -12.84,19.782 -16.2,25.9 -4.82,3.487 -23.86,12.206 -30.24,15.476 2.44,-4.299 3.21,-5.827 6.51,-9.472 -10.81,1.957 -17.52,2.88 -28.74,2.89 -1,7.478 -1.88,14.971 -2.66,22.476 -3.01,1.852 -8.33,4.916 -10.99,6.901 -0.92,-12.327 -0.17,-18.162 1.44,-30.15 0.22,-3.886 1.31,-6.777 2.44,-10.489 1.37,-5.616 2.37,-12.91 3.34,-18.729 l 13.42,-6.015 0.56,6.442 c 16.02,-4.62 31.61,-10.829 47.71,-13.744 z m -53.03,33.189 c 9.74,-0.167 29.36,0.044 36.38,-7.281 0.98,-1.026 4.39,-6.336 5.33,-7.812 2.52,-2.538 3.59,-3.808 5.73,-6.683 l -0.69,-0.853 -3.68,1.218 c -15.48,3.69 -24.56,11.48 -40.61,9.825 z"
     id="path28"
     style="fill:url(#Gradient5)" />
  <path
     fill="url(#Gradient4)"
     d="m 1235.3971,433.03384 3.68,-1.218 0.69,0.853 c -2.14,2.875 -3.21,4.145 -5.73,6.683 -2.58,0.111 -1.43,0.39 -3.63,-0.719 0.96,-2.949 2.33,-3.346 4.99,-5.599 z"
     id="path29"
     style="fill:url(#Gradient4)" />
  <path
     fill="#03630a"
     d="m 1153.8371,450.17684 2.82,1.406 c -4.48,2.351 -8.19,3.202 -9.91,7.076 1.44,1.137 2.91,2.241 4.4,3.312 -2.54,-0.424 -4.57,-0.855 -7.18,-0.837 -4.19,3.637 -9.92,28.036 -11.72,34.861 8.07,1.268 31.06,1.998 35.45,3.493 -4.52,2.964 -9.1,5.903 -13.49,9.046 -9.55,-0.185 -16.39,-0.687 -25.91,-2.072 -3.33,11.386 -3.77,16.868 -5.34,28.72 l -2.69,2.723 c -3.13,-0.885 -3.57,-0.899 -6.21,-2.687 -4.64,-9.18 5.12,-24.438 4.84,-31.166 l -2.71,-0.795 c -11.68,4.19 -8.5,30.249 -14.12,38.734 -3.17,1.963 -1.72,1.651 -5.43,1.164 -9.85,-7.858 2.01,-33.352 6.12,-43.12 -4.72,-1.121 -5.92,-1.836 -10.19,-4.028 4.54,-2.714 7.82,-6.732 11.39,-10.639 l 3.91,1.307 c 3.31,-1.761 2.85,-2.311 4.88,-5.938 2.81,-1.655 1.33,-1.375 4.61,-0.776 2.92,3.077 3.12,7.348 4.78,11.816 2.3,-2.556 8.01,-23.047 9.34,-27.633 7.53,-4.537 14.98,-9.193 22.36,-13.967 z"
     id="path30" />
  <path
     fill="#047110"
     d="m 1068.4211,544.62084 c 0.911,-7.144 0.587,-11.586 5.756,-16.646 l 1.92,-0.383 c 5.24,4.283 2.31,13.283 1.15,19.111 11.84,2.758 18.11,3.299 29.9,4.989 l -7.88,7.885 c -5.64,1.003 -11.48,-0.154 -16.89,-1.719 -7.21,-7.309 -10.839,-6.812 -19.641,-2.892 -5.198,0.281 -9.748,-1.565 -14.437,-3.479 3.721,-4.91 5.196,-7.092 8.107,-12.489 z"
     id="path31" />
  <path
     fill="#000000"
     d="m 765.95113,407.39384 c 5.567,-0.113 7.609,-0.345 12.892,1.254 12.253,5.063 34.277,13.685 44.213,22.124 38.087,32.346 73.659,72.056 102.566,112.861 4.271,6.028 10.629,11.013 9.495,18.278 3.116,5.665 13.434,6.45 10.751,15.229 -1.13,3.696 -4.957,7.26 -8.451,8.737 -7.48,3.162 -53.995,-18.255 -66.602,-20.257 -38.13,30.962 26.949,39.596 -8.958,58.803 -1.875,-0.758 -8.311,-3.409 -9.208,-4.61 -38.92,-52.131 -98.208,-86.129 -157.311,-110.813 -8.478,-3.541 -22.143,-9.765 -30.744,-10.307 -19.182,-1.21 -15.043,-21.272 0.867,-21.134 7.554,1.43 9.049,0.668 16.443,3.759 9.108,3.916 24.5,10.837 33.56,13.934 l 13.725,5.523 c 4.071,1.775 5.251,1.444 9.367,0.675 3.325,1.473 3.31,2.854 5.222,6.662 l 18.169,10.501 c -3.729,-10.691 -7.043,-28.563 -7.925,-39.809 l 3.647,-2.289 5.954,-4.86 c 2.707,13.962 5.135,27.978 7.281,42.037 6.53,-4.414 12.157,-8.532 18.438,-13.293 -1.91,-14.441 1.116,-33.701 3.178,-48.037 l 0.811,-0.217 -0.551,-12.547 1.811,-1.443 c -12.475,-8.328 -30.995,-10.27 -37.114,-17.561 1.73,-6.462 3.624,-8.75 8.474,-13.2 z m 55.258,84.067 c -0.719,24.872 4.931,35.028 11.758,58.354 9.208,-7.449 11.036,-9.898 23.071,-10.456 0.646,-15.029 1.569,-27.606 4.128,-42.425 -6.296,-7.056 -11.609,-12.729 -18.361,-19.337 -6.838,5.295 -13.292,9.262 -20.596,13.864 z m -29.318,22.286 c -5.588,3.465 -12.194,7.903 -16.426,13.022 13.189,9.462 28.34,15.913 41.205,25.976 2.49,1.948 5.612,4.373 8.187,6.142 -8.221,-27.228 -11.899,-30.014 -14.971,-59.159 l -7.468,4.536 -2.106,2.112 c 1.114,6.858 1.833,11.194 3.799,17.96 3.235,2.363 3.856,2 5.078,5.35 -1.072,3.172 -0.305,2.048 -3.247,4.078 -10.978,1.261 -13.095,-11.969 -14.051,-20.017 z m 55.925,37.709 c -4.593,3.677 -10.169,7.467 -11.592,13.006 -0.222,0.862 -0.817,1.608 -1.373,2.293 l 1.785,4.207 c 1.933,0.705 1.905,1.077 3.524,0.635 2.988,-6.621 6.402,-13.053 7.656,-20.141 z m -42.458,-106.615 -0.843,0.798 c -2.236,18.855 -4.932,28.697 -5.228,48.254 2.508,-1.653 7.658,-5.259 10.086,-6.524 5.347,-4.176 1.797,-15.284 11.812,-18.096 1.319,3.06 1.312,3.438 3.847,5.405 4.806,-0.24 5.07,-1.446 9.746,-4.414 -10.996,-10.929 -16.84,-16.775 -29.42,-25.423 z m 63.529,62.052 c -2.641,11.218 -2.482,23.458 -2.62,34.984 15.11,4.597 26.391,8.576 41.024,14.414 -8.08,-14.71 -26.475,-37.68 -38.404,-49.398 z"
     id="path32" />
  <path
     fill="#015405"
     d="m 834.77813,470.26384 c 2.305,2.33 4.935,4.85 7.027,7.333 -6.838,5.295 -13.292,9.262 -20.596,13.864 -2.505,1.658 -8.016,6.062 -10.092,6.333 -0.886,-1.773 -0.78,-6.906 -1.744,-10.425 5.347,-4.176 1.797,-15.284 11.812,-18.096 1.319,3.06 1.312,3.438 3.847,5.405 4.806,-0.24 5.07,-1.446 9.746,-4.414 z"
     id="path33" />
  <path
     fill="#047110"
     d="m 800.31213,506.37584 c 1.114,6.858 1.833,11.194 3.799,17.96 3.235,2.363 3.856,2 5.078,5.35 -1.072,3.172 -0.305,2.048 -3.247,4.078 -10.978,1.261 -13.095,-11.969 -14.051,-20.017 2.628,-2.103 5.835,-5.089 8.421,-7.371 z"
     id="path34" />
  <path
     fill="url(#Gradient3)"
     d="m 794.59113,438.15484 c 2.073,1.318 8.947,5.874 10.767,6.686 l -0.843,0.798 c -2.236,18.855 -4.932,28.697 -5.228,48.254 2.508,-1.653 7.658,-5.259 10.086,-6.524 0.964,3.519 0.858,8.652 1.744,10.425 -4.322,0.207 -7.367,2.276 -8.699,6.47 l -2.106,2.112 c -2.586,2.282 -5.793,5.268 -8.421,7.371 -5.588,3.465 -12.194,7.903 -16.426,13.022 -5.321,-3.78 -7.676,-5.304 -13.518,-8.156 -3.729,-10.691 -7.043,-28.563 -7.925,-39.809 l 3.647,-2.289 5.954,-4.86 c 2.707,13.962 5.135,27.978 7.281,42.037 6.53,-4.414 12.157,-8.532 18.438,-13.293 -1.91,-14.441 1.116,-33.701 3.178,-48.037 l 0.811,-0.217 -0.551,-12.547 z"
     id="path35"
     style="fill:url(#Gradient3)" />
  <path
     fill="#013d04"
     d="m 794.59113,438.15484 c 2.073,1.318 8.947,5.874 10.767,6.686 l -0.843,0.798 c -3.989,2.175 -7.352,4.073 -11.184,6.506 l -0.551,-12.547 z"
     id="path36" />
  <path
     fill="#03630a"
     d="m 811.11713,497.79384 c 2.076,-0.271 7.587,-4.675 10.092,-6.333 -0.719,24.872 4.931,35.028 11.758,58.354 9.208,-7.449 11.036,-9.898 23.071,-10.456 0.646,-15.029 1.569,-27.606 4.128,-42.425 l 8.721,9.959 c -2.641,11.218 -2.482,23.458 -2.62,34.984 -7.544,-0.984 -16.893,0.689 -18.451,9.579 -4.593,3.677 -10.169,7.467 -11.592,13.006 -0.222,0.862 -0.817,1.608 -1.373,2.293 -2.414,-2.628 -6.971,-5.681 -9.994,-7.868 -8.221,-27.228 -11.899,-30.014 -14.971,-59.159 l -7.468,4.536 c 1.332,-4.194 4.377,-6.263 8.699,-6.47 z"
     id="path37" />
  <path
     fill="#000000"
     d="m 1032.9081,688.87784 c 8.901,-0.182 16.384,0.798 25.099,2.263 4.159,3.59 9.839,7.254 9.205,12.958 -2.35,1.884 -2.787,2.059 -4.261,4.6 2.375,2.371 12.296,8.578 8.952,13.513 -13.095,19.318 -28.556,41.364 -36.176,63.56 0.622,0.751 1.235,1.509 1.84,2.274 8.411,10.67 4.733,21.708 -9.988,19.561 -9.061,-1.321 -12.749,-7.523 -17.397,-14.561 -14.65497,-16.954 -57.36697,-57.749 -66.51897,-77.09 -0.078,-3.996 5.561,-16.55 9.095,-17.048 26.39,-3.724 53.55997,-8.489 80.14997,-10.03 z m -14.17,25.809 c 3.983,-0.293 9.432,-0.673 11.729,-4.453 -2.328,-1.2 -3.834,-0.615 -6.773,-0.433 -4.858,0.574 -9.309,0.807 -13.796,2.751 l 0.109,1.077 c 3.774,0.845 4.892,0.909 8.731,1.058 z"
     id="path38" />
  <path
     fill="#000000"
     d="m 1470.7571,98.562553 c 6.39,0.04181 11.13,0.8029 14.07,7.395287 5.88,13.1974 -19.98,20.2343 -29.45,24.8452 l -72.68,34.9613 c -35.43,17.4448 -66.24,35.6645 -99.38,57.0035 -13.01,8.373 -28.07,16.011 -41.71,24.694 -22.73,14.762 -45.78,29.034 -69.12,42.807 -8.23,4.746 -20.24,11.977 -28.83,15.474 -2.26,-0.105 -4.87,-0.091 -7.03,-0.8 -3.09,-1.014 -7.01,-4.498 -8.4,-7.416 -0.86,-1.79 -0.87,-3.823 -0.1,-5.613 2.82,-6.551 38.93,-24.458 47.16,-29.463 l 97.16,-58.974 c 22.51,-13.7332 44.49,-27.7448 67.57,-40.516 29.4,-16.262 59.94,-29.6743 89.74,-45.0898 13.57,-7.0176 26.79,-13.6268 41,-19.308487 z"
     id="path39" />
  <path
     fill="#000000"
     d="m 718.64147,573.03433 c 48.406,-4.046 92.79466,47.95051 121.71866,81.03251 7.676,8.779 17.639,19.526 23.501,29.471 0.324,7.054 0.97707,20.32291 -2.52273,27.97575 -2.80953,2.80971 -4.85327,9.98225 -18.27727,6.59325 -6.913,-4.275 -5.327,-9.644 -2.693,-15.546 -4.836,-25.672 -14.15,-33.804 -32.195,-51.787 -2.331,-2.334 -4.74,-4.589 -7.223,-6.761 -69.99398,-62.61634 -104.367,-41.098 -136.081,-11.382 -7.513,7.039 -5.053,13.636 -7.53,15.008 -16.312,9.032 -19.349,-16.854 -8.917,-24.934 6.493,-6.543 10.061,-20.852 19.226,-26.816 11.95899,-13.50196 6.77575,-9.60247 23.78208,-16.59452 3.291,-3.348 22.45026,-5.68699 27.21126,-6.25999 z"
     id="path40"
     sodipodi:nodetypes="cccccccccccccc" />
  <path
     fill="#000000"
     d="m 1493.0271,185.50434 0.68,-0.8966 c 10.76,-14.4134 34.25,-78.8058 50.37,-80.75653 2.18,-0.26276 4.21,0.39653 5.87,1.81183 2.29,1.9588 3.73,4.722 3.79,7.7543 0.05,2.6259 -0.75,5.2042 -1.79,7.5859 -3.42,7.7974 -8.55,14.9738 -12.68,22.4112 -8.44,15.2064 -16.51,30.8375 -24.52,46.2818 -23.17,44.6316 -46.08,90.6476 -61.28,138.7096 -4.18,13.222 -8.16,26.679 -11.3,40.188 -2.2,9.48 -3.59,19.477 -6.44,28.756 -0.88,2.868 -2.03,6.733 -4.38,8.711 -2.08,1.748 -4.58,2.093 -7.19,1.704 -2.93,-0.439 -5.43,-1.238 -7.27,-3.673 -3.45,-4.566 -2.65,-11.757 -1.64,-17.009 1.79,-9.322 4.99,-18.401 7.48,-27.559 4.08,-15.017 8,-30.109 13.15,-44.806 12.24,-34.884 28.7,-68.994 44.84,-102.224 2.05,-2.166 11.28,-23.2858 12.31,-26.9895 z"
     id="path41" />
  <path
     fill="#000000"
     d="m 1111.2871,912.81884 c -18.11,-19.065 -32.78,-38.539 -47.505,-60.303 -4.847,-7.161 -22.3,-24.821 -22.912,-31.692 0.93,-3.692 3.515,-6.924 6.743,-8.939 2.812,-1.756 5.674,-2.209 8.888,-1.345 16.386,4.404 50.986,76.221 80.316,92.511 15.65,8.69 34.83,9.199 52.24,7.274 12.18,-1.347 36.26,-11.775 44.41,3.241 1.17,19.254 -52.36,19.472 -65.62,19.284 -20.15,-0.286 -36.71,-7.258 -53.7,-17.652 z"
     id="path42" />
  <path
     fill="#000000"
     d="m 960.47913,918.78384 c -31.302,23.311 -66.239,40.978 -107.153,31.758 -5.157,-1.162 -5.774,-5.633 -7.637,-7.89 -4.038,-4.893 -15.25,-6.548 -14.597,-15.363 1.402,-2.278 3.338,-3.744 5.864,-4.61 9.027,-3.093 10.06,2.888 11.668,9.209 10.855,1.163 27.146,1.11 38.072,-0.006 36.134,-3.689 65.59,-31.807 88.738,-57.508 9.022,-10.017 14.999,-26.521 18.61,-39.504 2.517,-8.932 1.041,-16.884 10.56797,-20.739 9.236,-3.736 20.29,7.323 17.016,12.872 -8.147,13.808 -16.149,40.947 -24.56297,53.282 l -3.09,4.052 c -7.049,7.603 -14.272,15.043 -21.664,22.314 z"
     id="path43" />
  <path
     fill="#000000"
     d="m 1194.1671,295.34584 c 6.62,-0.388 30.29,3.448 37.64,5.803 35.97,11.535 86.51,32.578 115.08,56.641 12.94,12.74 23.65,29.06 32.44,44.821 5.74,10.286 15.45,20.149 1.5,26.984 -15.94,7.256 -15.8,-0.049 -19.56,-11.943 -18.2,-57.596 -82.84,-79.57 -134.17,-98.235 -8.31,-3.022 -60.62,-4.153 -32.93,-24.071 z"
     id="path44" />
  <path
     fill="#000000"
     d="m 1223.5271,595.80684 c 41.53,-3.138 76.38,24.611 78.78,67.14 0.21,3.65 -0.14,5.675 -2.64,8.346 l -2.4,-0.225 c -8.92,-5.362 -4.37,-9.229 -7.69,-16.541 -21.91,-48.34 -57.66,-48.336 -102.63,-33.107 -22.92,8.537 -42.37,20.38 -59.12,38.358 -5.91,6.347 -10.7,19.057 -21.05,17.148 -13.17,-10.61 7.41,-28.219 15.04,-35.65 26.21,-25.52 65.66,-41.59 101.71,-45.469 z"
     id="path45" />
  <path
     fill="#e31717"
     d="m 1022.0551,862.61184 c -2.199,-3.152 -4.682,-5.951 -4.734,-9.758 l 0.734,-2.274 c 7.764,-1.27 10.812,12.59 13.859,16.809 l 0.947,1.194 c 1.307,4.649 3.974,9.716 6.109,14.135 4.79,-8.02 12.04,-21.162 23.17,-18.65 l 0.796,1.238 c -1.186,1.835 -2.354,3.682 -3.501,5.541 2.013,2.282 13.962,16.679 15.102,17.118 2.92,-2.082 3.94,-3.593 7.01,-3.711 0.19,3.705 -1.18,5.418 -3.75,8.478 8,9.034 15.61,22.86 23.04,33.418 3.08,-5.477 4.96,-10.433 10.45,-13.331 l 2.86,2.379 c -1.97,3.234 -8.75,13.342 -9.48,16.094 -1.29,1.647 -0.76,1.042 -2.98,1.936 -3.2,-1.195 -2.07,-0.398 -4.11,-3.234 -8.08,-10.813 -16.04,-21.72 -23.88,-32.718 -6.787,8.427 -10.107,13.619 -15.668,22.964 5.69,10.619 10.947,19.566 17.228,29.839 l -4.616,2.314 c -6.272,-8.202 -10.915,-17.864 -16.205,-26.919 -4.241,5.987 -4.384,12.362 -8.606,16.525 -3.387,0.848 -2.371,1.146 -4.686,-0.229 -0.751,-5.424 6.8,-15.662 9.923,-20.56 -4.863,-9.211 -9.471,-18.555 -13.819,-28.021 -3.765,5.989 -10.936,15.081 -15.367,21.218 2.163,2.834 5.767,6.312 3.686,9.736 -3.269,-0.263 -4.631,-2.237 -7.12,-4.616 -3.056,-0.915 -1.975,-0.221 -3.92,-3.794 -3.782,-4.33 -6.475,-11.332 -11.11,-13.225 l -2.956,2.63 c -2.77197,5.772 -8.15197,9.363 -10.16497,14.702 2.051,0.815 5.03,1.697 6.406,3.262 l -0.11,1.458 -1.314,0.751 c -2.956,-0.996 -5.105,-1.7 -7.975,-3.014 -5.297,5.842 -12.759,13.983 -16.01,21.122 l 1.789,4.039 c -2.092,2.421 -1.465,1.675 -4.925,2.838 l -2.435,-0.798 c -2.518,-5.072 3.292,-11.655 6.181,-16.286 -4.599,-5.038 -8.011,-8.424 -11.424,-14.428 l 11.832,-12.133 c 2.042,2.196 6.418,6.355 6.584,9.123 -2.082,0.919 -3.405,1.631 -5.391,2.748 -0.934,3.462 0.192,4.615 1.448,8.564 9.757,-8.57 17.85,-19.307 25.87597,-29.49 -1.14397,-3.378 -4.96497,-9.848 -6.85297,-13.259 l 3.09,-4.052 c 2.813,3.964 5.98997,8.243 8.64197,12.266 7.893,-6.324 12.624,-13.914 20.085,-20.453 -0.099,-0.787 -1.137,-4.349 -1.404,-5.326 z m -4.412,48.38 c 4.219,-6.319 12.243,-15.874 17.16,-22.095 l -6.991,-14.149 c -6.633,7.886 -12.461,15.235 -20.212,22.09 3.152,5.109 6.447,9.38 10.043,14.154 z m 23.798,-23.995 c 2.693,5.911 9.991,23.055 13.486,27.454 l 1.244,-0.392 0.57,-1.117 c 4.393,-6.314 9.092,-13.388 13.627,-19.515 -2.788,-3.453 -13.856,-17.677 -17.086,-19.252 -5.081,4.835 -7.555,7.14 -11.841,12.822 z"
     id="path46" />
  <path
     fill="#e13535"
     d="m 1005.7071,892.55084 c 7.893,-6.324 12.624,-13.914 20.085,-20.453 l 2.02,2.65 c -6.633,7.886 -12.461,15.235 -20.212,22.09 z"
     id="path47" />
  <path
     fill="#000000"
     d="m 959.15213,283.86084 c 23.868,-1.562 61.21497,3.501 81.04597,18.335 7.454,5.576 20.704,21.667 13.248,31.001 -9.112,2.102 -11.886,-7.157 -16.119,-12.611 -11.302,-14.562 -33.942,-16.449 -50.88197,-18.91 -35.686,-4.067 -60.015,3.149 -94.024,13.244 -4.042,1.2 -11.934,2.416 -15.615,-0.125 -1.484,-1.022 -2.462,-2.627 -2.692,-4.414 -0.323,-2.338 0.336,-4.262 1.831,-6.081 9.175,-11.162 68.343,-19.51 83.207,-20.439 z"
     id="path48" />
  <path
     fill="#047110"
     d="m 1376.2671,195.81284 c -4.78,2.218 -9.96,5.105 -14.55,7.771 -38.04,22.064 -75.83,45.156 -112.44,69.507 -6.81,4.53 -15.5,12.643 -22.94,15.428 -3.85,-0.581 -2.41,0.086 -5.36,-2.637 -0.57,-2.616 -0.9,-3.772 0.55,-6.243 7.88,-13.418 173.73,-106.719 196.16,-118.4526 12,-6.2772 24.47,-10.8228 36.62,-16.5583 5.58,-2.6303 10.64,-7.0894 16.59,-8.7276 3.5,0.5827 2.56,-0.1075 4.42,2.1686 -1.5,6.7789 -23.91,20.1783 -30.5,23.2885 l -1.09,0.5053 c 0.04,6.4079 -2.31,6.8884 -7.28,10.5708 -3.6,-1.4146 -4.68,-1.9577 -7.48,-4.6894 -5.88,-1.0423 -9.64,1.6122 -13.21,6.5397 -7.25,3.3051 -34.63,16.5173 -39.49,21.529 z"
     id="path49" />
  <path
     fill="#047110"
     d="m 1501.2471,135.01174 3.04,1.3061 c 0.89,1.498 1.5,2.0019 1.11,3.8063 -1.67,7.7799 -80,78.4837 -93.19,91.4717 -12.81,12.623 -25.49,25.634 -37.17,39.315 -7.29,8.527 -32.63,44.308 -39.71,48.425 -1.48,-0.975 -2.46,-1.957 -3.76,-3.149 -0.51,-1.354 -0.94,-2.724 -0.79,-4.192 1.27,-12.155 52,-66.999 63.34,-77.907 18.14,-17.442 37.97,-33.216 56.29,-50.5113 16.93,-15.9791 32.51,-34.185 50.84,-48.5648 z"
     id="path50" />
  <path
     fill="#047110"
     d="m 1415.7571,174.28384 c 3.57,-4.9275 7.33,-7.582 13.21,-6.5397 2.8,2.7317 3.88,3.2748 7.48,4.6894 -44.96,31.1033 -112.89,80.6703 -147.94,126.4183 -3.39,4.426 0.81,15.339 -11.32,13.428 -20.5,-17.844 71.56,-83.842 82.23,-95.995 6.66,-4.974 55.43,-39.4813 56.34,-42.001 z"
     id="path51" />
  <path
     fill="#047110"
     d="m 1369.4171,323.78084 c 15.68,-27.179 98.21,-119.959 123.61,-138.2765 -1.03,3.7037 -10.26,24.8235 -12.31,26.9895 -5.37,3.754 -9.96,9.261 -14.5,14 -30.72,32.023 -63.44,64.985 -87.03,102.769 l -5.8,9.202 c -3.32,-2.065 -5.6,-4.541 -8.41,-7.256 z"
     id="path52" />
  <path
     fill="#03630a"
     d="m 1369.4171,323.78084 c 5.07,1.343 5.78,2.038 9.77,5.482 l -5.8,9.202 c -3.32,-2.065 -5.6,-4.541 -8.41,-7.256 z"
     id="path53" />
  <path
     fill="#03630a"
     d="m 705.08013,438.83084 c 4.288,0.268 6.807,-0.272 11.026,-0.943 1.612,2.578 3.751,5.494 4.43,8.358 -3.326,2.537 -5.874,4.639 -9.617,6.549 l -1.752,2.189 c -8.031,6.047 -19.668,18.786 -27.263,26.334 -7.394,-3.091 -8.889,-2.329 -16.443,-3.759 3.982,-0.057 3.733,-4.311 7.159,-7.868 9.714,-10.086 21.727,-18.785 32.685,-27.506 z"
     id="path54" />
  <path
     fill="#013d04"
     d="m 705.08013,438.83084 c 4.288,0.268 6.807,-0.272 11.026,-0.943 1.612,2.578 3.751,5.494 4.43,8.358 -3.326,2.537 -5.874,4.639 -9.617,6.549 -3.86,-3.593 -4.084,-5.599 -5.614,-10.61 z"
     id="path55" />
  <path
     fill="#03630a"
     d="m 752.00513,464.69384 c 3.412,-2.829 6.448,-3.134 10.767,-2.346 0.833,2.24 1.652,5.44 3.412,6.821 l -2.561,2.486 -5.954,4.86 -3.647,2.289 c -5.949,4.304 -19.099,14.444 -23.911,19.527 l -0.922,2.444 -13.725,-5.523 0.914,-1.957 -0.743,-5 0.546,-0.581 c 2.83,-0.009 6.847,-1.851 9.315,-3.2 4.259,-0.459 21.126,-14.525 25.536,-17.955 z"
     id="path56" />
  <path
     fill="#015405"
     d="m 752.00513,464.69384 c 3.412,-2.829 6.448,-3.134 10.767,-2.346 0.833,2.24 1.652,5.44 3.412,6.821 l -2.561,2.486 -5.954,4.86 c -3.681,-4.131 -4.513,-4.914 -6.637,-9.956 z"
     id="path57" />
  <path
     fill="#013d04"
     d="m 716.37813,493.29484 c 3.586,-2.29 4.762,-3.914 8.475,-3.982 3.06,2.821 3.006,5.38 5.258,9.018 l -0.922,2.444 -13.725,-5.523 z"
     id="path58" />
  <path
     fill="#047110"
     d="m 808.06313,377.54184 c 11.078,-1.887 15.286,7.598 5.144,13.069 -8.564,1.394 -26.574,13.141 -34.364,18.037 -5.283,-1.599 -7.325,-1.367 -12.892,-1.254 l -5.603,-0.812 c 15.161,-9.587 34.025,-18.032 47.715,-29.04 z"
     id="path59" />
  <path
     fill="#013d04"
     d="m 808.06313,377.54184 c 11.078,-1.887 15.286,7.598 5.144,13.069 l -2.713,-1.478 c -1.979,-3.174 -2.007,-7.692 -2.431,-11.591 z"
     id="path60" />
  <path
     fill="#015405"
     d="m 729.38113,425.08784 c 0.624,4.184 0.937,8.732 2.971,12.363 l -0.843,1.34 c -3.672,1.247 -7.79,4.938 -10.973,7.455 -0.679,-2.864 -2.818,-5.78 -4.43,-8.358 -4.219,0.671 -6.738,1.211 -11.026,0.943 -7.223,1.996 -10.071,12.14 -17.258,8.134 -2.258,-3.627 -1.833,-2.053 -2.015,-6.027 2.523,-5.963 10.103,-10.251 15.531,-13.899 9.257,-1.745 10.798,-0.62 15.14,7.663 5.227,-3.473 8.24,-5.488 12.903,-9.614 z"
     id="path61" />
  <path
     fill="#03630a"
     d="m 729.38113,425.08784 c 0.624,4.184 0.937,8.732 2.971,12.363 l -0.843,1.34 c -3.672,1.247 -7.79,4.938 -10.973,7.455 -0.679,-2.864 -2.818,-5.78 -4.43,-8.358 l -2.372,-1.634 c -0.849,-7.302 -6.682,-8.2 -12.396,-9.215 9.257,-1.745 10.798,-0.62 15.14,7.663 5.227,-3.473 8.24,-5.488 12.903,-9.614 z"
     id="path62" />
  <path
     fill="#047110"
     d="m 720.53613,446.24584 c 0.313,16.406 3.546,24.314 4.96,38.268 -2.468,1.349 -6.485,3.191 -9.315,3.2 l -0.546,0.581 c -2.607,-11.011 -4.765,-22.124 -6.468,-33.311 l 1.752,-2.189 c 3.743,-1.91 6.291,-4.012 9.617,-6.549 z"
     id="path63" />
  <path
     fill="#03630a"
     d="m 752.51513,425.07884 c 3.178,8.104 7.183,25.127 9.112,34.673 0.375,0.174 0.751,0.347 1.126,0.521 l 0.019,2.075 c -4.319,-0.788 -7.355,-0.483 -10.767,2.346 -2.784,-8.639 -4.223,-26.899 -9.934,-32.252 2.793,-2.922 4.193,-3.377 7.753,-5.035 1.413,-0.742 1.516,-1.103 2.691,-2.328 z"
     id="path64" />
  <path
     fill="#047110"
     d="m 762.75313,460.27284 c 4.55,-4.432 23.851,-16.634 30.027,-20.675 l 0.551,12.547 -0.811,0.217 c -9.366,5.554 -17.459,11.372 -26.336,16.807 -1.76,-1.381 -2.579,-4.581 -3.412,-6.821 z"
     id="path65" />
  <path
     fill="url(#Gradient2)"
     d="m 1415.7571,174.28384 c -0.91,2.5197 -49.68,37.027 -56.34,42.001 -0.36,-0.692 -0.69,-1.994 -0.93,-2.793 2.57,-4.039 13.83,-11.999 17.78,-17.679 4.86,-5.0117 32.24,-18.2239 39.49,-21.529 z"
     id="path66"
     style="fill:url(#Gradient2)" />
  <path
     fill="#013d04"
     d="m 729.38113,425.08784 c 4.475,-4.128 10.935,-7.158 16.392,-10.064 2.887,2.519 4.938,3.669 5.68,7.315 -0.469,2.094 -0.588,3.143 -1.629,5.068 -3.56,1.658 -4.96,2.113 -7.753,5.035 -4.036,0.184 -6.454,2.634 -9.719,5.009 -2.034,-3.631 -2.347,-8.179 -2.971,-12.363 z"
     id="path67" />
  <path
     fill="#047110"
     d="m 1364.9771,331.20884 c 2.81,2.715 5.09,5.191 8.41,7.256 -1.51,5.618 -4.75,19.867 -13.51,15.726 -4.94,-7.971 1.11,-16.082 5.1,-22.982 z"
     id="path68" />
  <path
     fill="#047110"
     d="m 732.35213,437.45084 c 3.265,-2.375 5.683,-4.825 9.719,-5.009 -1.178,4.708 6.058,17.84 1.225,25.074 -5.451,-0.768 -9.995,-13.948 -11.787,-18.725 z"
     id="path70" />
  <path
     fill="#e13535"
     d="m 1097.5771,929.99384 c 2.04,2.836 0.91,2.039 4.11,3.234 2.22,-0.894 1.69,-0.289 2.98,-1.936 2.97,1.358 13.18,17.128 15.58,20.656 -10.99,-6.678 -11.43,-7.022 -18.94,-17.663 -2.68,4.322 -5.97,6.761 -8.2,11.074 2.72,4.744 2.2,4.38 -1.16,8.085 l -3.32,-1.105 c -0.47,-4.294 6.63,-18.2 8.95,-22.345 z"
     id="path71" />
  <path
     fill="#015405"
     d="m 745.77313,415.02384 14.575,-8.442 5.603,0.812 c -4.85,4.45 -6.744,6.738 -8.474,13.2 -1.641,1.51 -3.295,3.005 -4.962,4.485 -1.175,1.225 -1.278,1.586 -2.691,2.328 1.041,-1.925 1.16,-2.974 1.629,-5.068 -0.742,-3.646 -2.793,-4.796 -5.68,-7.315 z"
     id="path72" />
  <path
     fill="#1d902b"
     d="m 667.04413,365.24284 5.647,-5.116 c 3.385,3.888 12.546,12.317 7.291,17.018 -7.335,-0.15 -10.16,-6.157 -12.938,-11.902 z"
     id="path73" />
  <path
     fill="#e31717"
     fill-opacity="0.988235"
     d="m 1031.9141,867.38884 c 4.92,-6.62 13.763,-20.247 20.91,-23.126 l 1.514,0.655 c -0.542,6.662 -15.834,20.324 -21.477,23.665 z"
     id="path74" />
  <path
     fill="#e31717"
     d="m 1039.7431,832.93384 c 3.227,0.321 4.925,0.307 6.48,2.974 -1.189,4.507 -8.459,10.549 -12.214,14.171 l -3.334,1.939 -1.202,-0.959 c 0.569,-5.762 6.709,-13.373 10.27,-18.125 z"
     id="path75" />
  <path
     fill="#e13535"
     d="m 1014.5271,915.73284 c 1.945,3.573 0.864,2.879 3.92,3.794 -8.01,9.075 -7.369,12.13 -13.191,20.61 -2.587,1.404 -1.3,1.268 -3.931,0.769 -0.734,-4.94 9.947,-19.937 13.202,-25.173 z"
     id="path76" />
  <path
     fill="#e13535"
     d="m 1075.2571,950.07884 c 4.45,6.04 9.54,13.092 12.13,20.132 -9.07,-6.177 -10.87,-8.473 -16.746,-17.818 z"
     id="path79" />
  <path
     fill="#e13535"
     d="m 1022.0551,862.61184 2.333,4.16 c -6.369,5.017 -11.372,12.66 -19.116,19.044 5.012,-11.613 7.608,-14.032 16.783,-23.204 z"
     id="path80" />
  <path
     fill="url(#Gradient1)"
     d="m 1148.3871,1272.5948 0.42,-3.59 1.16,-0.48 c 1.66,1.88 1.93,2.19 3.21,4.32 l 0.12,4.33 -1.06,0.41 z"
     id="path84"
     style="fill:url(#Gradient1)" />
</svg>
